<?xml version="1.0" encoding="utf-8"?>
<!-- Generator: Adobe Illustrator 21.0.2, SVG Export Plug-In . SVG Version: 6.00 Build 0)  -->
<svg version="1.1" id="gift" xmlns="http://www.w3.org/2000/svg" xmlns:xlink="http://www.w3.org/1999/xlink" x="0px" y="0px"
	 viewBox="0 0 64 64" style="enable-background:new 0 0 64 64;" xml:space="preserve">
<path d="M38.7,55.4V21.3H25.3v34.1c0,0.8,0.3,1.4,0.8,1.8c0.5,0.4,1.1,0.6,1.9,0.6h8c0.8,0,1.4-0.2,1.9-0.6S38.7,56.2,38.7,55.4z
	 M19.7,15.2h8.1l-5.3-7.7c-0.7-1-1.7-1.5-2.9-1.5c-1.1,0-2.1,0.4-2.8,1.3c-0.8,0.9-1.2,2-1.2,3.2s0.4,2.3,1.2,3.2
	C17.6,14.8,18.6,15.2,19.7,15.2L19.7,15.2z M48.3,10.7c0-1.3-0.4-2.3-1.2-3.2c-0.8-0.9-1.7-1.3-2.8-1.3c-1.2,0-2.2,0.5-2.9,1.5
	l-5.2,7.7h8.1c1.1,0,2.1-0.4,2.8-1.3C47.9,13,48.3,11.9,48.3,10.7L48.3,10.7z M64,22.9v15.2c0,0.4-0.1,0.8-0.4,1.1
	c-0.2,0.3-0.6,0.4-1,0.4h-4v19.8c0,1.3-0.4,2.3-1.2,3.2c-0.8,0.9-1.7,1.3-2.8,1.3H9.3c-1.1,0-2.1-0.4-2.8-1.3
	c-0.8-0.9-1.2-2-1.2-3.2V39.6h-4c-0.4,0-0.7-0.1-1-0.4S0,38.5,0,38.1V22.9c0-0.4,0.1-0.8,0.4-1.1c0.2-0.3,0.6-0.4,1-0.4h18.3
	c-2.6,0-4.8-1-6.6-3.1s-2.7-4.6-2.7-7.5c0-3,0.9-5.5,2.7-7.5s4-3.1,6.6-3.1c3,0,5.3,1.2,7,3.7l5.3,7.9l5.3-7.9c1.7-2.4,4-3.7,7-3.7
	c2.6,0,4.8,1,6.6,3.1c1.8,2.1,2.7,4.6,2.7,7.5c0,3-0.9,5.5-2.7,7.5c-1.8,2.1-4,3.1-6.6,3.1h18.3c0.4,0,0.7,0.1,1,0.4
	C63.9,22,64,22.4,64,22.9L64,22.9z"/>
</svg>
