<?xml version="1.0" standalone="no"?>
<!DOCTYPE svg PUBLIC "-//W3C//DTD SVG 20010904//EN"
 "http://www.w3.org/TR/2001/REC-SVG-20010904/DTD/svg10.dtd">
<svg version="1.0" xmlns="http://www.w3.org/2000/svg"
 width="1280.000000pt" height="403.000000pt" viewBox="0 0 1280.000000 403.000000"
 preserveAspectRatio="xMidYMid meet">
<metadata>
Created by potrace 1.15, written by Peter Selinger 2001-2017
</metadata>
<g transform="translate(0.000000,403.000000) scale(0.100000,-0.100000)"
fill="#3f51b5" stroke="none">
<path d="M8745 3639 c-229 -51 -394 -61 -477 -29 -29 11 -58 20 -65 20 -14 0
-83 -87 -83 -105 0 -7 18 -35 40 -61 26 -32 49 -74 63 -119 21 -66 22 -87 22
-385 -1 -304 -2 -317 -24 -373 -16 -41 -36 -69 -72 -100 -29 -24 -49 -50 -49
-62 0 -11 13 -42 28 -70 21 -40 33 -51 56 -53 15 -2 38 -15 50 -29 l22 -25 64
33 64 34 160 0 c160 0 162 0 228 -32 81 -38 91 -33 115 50 l16 58 -45 47 c-74
76 -91 119 -96 249 -2 61 -1 128 2 148 7 35 36 75 56 75 5 0 38 -25 72 -56 67
-60 171 -118 230 -129 84 -16 204 49 243 131 9 20 18 34 19 32 2 -2 0 -62 -4
-133 -8 -158 -26 -206 -102 -276 l-52 -47 33 -66 c29 -59 35 -66 62 -66 17 0
32 -6 35 -15 14 -36 41 -37 101 -3 l58 33 160 0 c154 0 162 -1 219 -27 85 -40
101 -38 120 19 25 74 21 94 -28 142 -73 71 -90 123 -90 271 0 131 7 160 45
180 17 10 29 3 82 -43 34 -29 94 -71 132 -92 60 -33 79 -39 131 -39 161 1 252
117 242 314 -4 95 -17 123 -52 118 -14 -2 -27 6 -38 24 -22 35 -38 35 -77 2
-17 -14 -44 -29 -61 -34 -37 -11 -102 -1 -97 14 6 18 139 85 217 109 85 26 91
37 70 113 -16 58 -66 113 -147 165 -112 70 -167 91 -273 99 -84 7 -112 4 -245
-22 -189 -38 -379 -44 -434 -15 -45 25 -70 16 -106 -37 -16 -25 -33 -46 -36
-46 -3 0 -41 20 -84 45 -44 25 -100 51 -125 59 -73 23 -204 25 -295 5z m129
-276 c9 -26 16 -68 16 -93 l0 -47 -52 -6 c-29 -3 -61 -9 -72 -13 -17 -7 -18
-4 -12 42 10 71 26 116 49 142 33 35 53 28 71 -25z m1138 -8 c9 -28 17 -71 18
-96 0 -44 -1 -45 -27 -42 -16 3 -47 0 -70 -5 l-43 -10 0 35 c0 86 47 179 88
171 10 -2 24 -22 34 -53z m-638 -87 c16 -107 16 -131 1 -118 -8 7 -25 10 -38
6 -19 -4 -25 0 -34 24 -14 36 -34 38 -76 6 -18 -14 -45 -29 -60 -35 -28 -11
-107 -5 -107 8 0 19 246 133 302 140 4 1 9 -14 12 -31z"/>
<path d="M3250 3620 c-25 -4 -92 -17 -149 -29 -114 -24 -166 -22 -240 10 -58
25 -62 25 -101 -16 l-33 -34 19 -63 c30 -99 26 -289 -10 -441 -30 -130 -28
-141 25 -152 42 -9 43 -21 5 -45 -23 -14 -45 -41 -63 -78 -37 -76 -39 -194 -5
-259 60 -116 249 -224 443 -254 136 -21 306 1 427 56 105 48 217 190 238 301
3 19 9 34 13 34 3 0 19 -26 36 -58 66 -129 238 -258 415 -313 148 -46 319 -23
450 61 73 47 160 146 202 233 58 117 78 203 79 334 l0 112 38 -38 c48 -48 158
-107 236 -128 77 -20 188 -14 244 14 l41 20 -1 -26 c0 -14 -19 -137 -42 -273
-27 -155 -40 -256 -35 -269 7 -17 14 -20 39 -17 25 4 32 0 39 -17 7 -20 15
-21 102 -21 l93 1 12 80 c6 44 12 82 12 85 1 2 18 -12 39 -32 91 -89 269 -157
372 -144 90 12 142 37 201 95 79 79 103 144 104 276 0 87 -4 107 -27 157 -14
31 -45 77 -68 102 -50 54 -176 130 -243 147 -67 16 -191 7 -250 -19 l-49 -22
7 43 c4 23 20 119 37 212 55 315 54 306 33 321 -10 8 -26 12 -35 9 -9 -3 -19
4 -25 18 -9 20 -19 23 -94 27 -51 3 -90 1 -98 -5 -8 -6 -19 -44 -25 -87 l-11
-77 -42 37 c-65 57 -183 119 -253 133 -71 15 -162 4 -228 -27 -81 -38 -171
-154 -189 -244 -15 -76 -14 -76 -56 -11 -51 76 -118 137 -219 196 -102 60
-182 85 -292 92 -230 15 -416 -92 -517 -297 -45 -93 -81 -218 -82 -289 0 -40
-16 -105 -18 -75 -1 7 -22 35 -47 63 -46 51 -124 104 -224 152 l-55 27 73 22
c59 18 86 21 140 16 135 -14 137 -13 140 13 6 42 -39 140 -90 196 -64 71 -185
141 -274 160 -74 16 -94 16 -164 5z m1184 -258 c30 -57 39 -176 33 -415 -6
-243 -17 -337 -48 -399 -20 -38 -52 -63 -69 -53 -48 30 -65 553 -25 760 14 72
24 95 46 118 32 31 42 29 63 -11z m895 -134 c-1 -136 -3 -146 -11 -95 -9 51
-3 247 8 247 2 0 3 -69 3 -152z m-2103 -256 c33 -22 48 -78 52 -196 5 -141
-14 -228 -58 -276 -34 -37 -54 -38 -76 -5 -32 48 -14 110 61 211 15 22 -4 44
-83 97 l-73 48 20 27 c34 48 73 82 105 91 40 12 39 12 52 3z m2884 -329 c0
-99 -3 -143 -10 -133 -16 25 -10 280 6 280 2 0 4 -66 4 -147z"/>
<path d="M7360 3615 c-205 -50 -356 -187 -449 -407 -24 -59 -26 -72 -25 -218
0 -140 3 -163 27 -235 63 -190 177 -320 366 -415 162 -82 304 -104 449 -70
234 55 375 184 454 413 31 87 32 100 33 242 0 132 -3 159 -24 224 -28 85 -99
197 -162 258 -54 51 -170 126 -252 163 -127 57 -294 75 -417 45z m244 -256
c41 -102 57 -202 63 -394 6 -211 -4 -313 -40 -385 -22 -45 -75 -90 -107 -90
-63 0 -112 320 -91 592 14 176 32 241 76 285 47 47 78 45 99 -8z"/>
<path d="M4580 1629 c-236 -34 -386 -233 -349 -461 18 -114 51 -162 156 -230
l65 -42 -48 -13 c-190 -48 -249 -286 -105 -431 119 -121 349 -202 573 -202
247 0 426 87 507 247 l28 56 26 -46 c38 -65 108 -122 212 -173 120 -59 206
-73 350 -55 150 18 263 15 335 -9 78 -26 85 -25 110 10 l22 30 18 -22 18 -23
65 18 c80 21 185 22 257 2 108 -30 115 -30 139 1 36 46 36 68 0 119 -25 34
-36 64 -45 123 -7 42 -13 91 -13 107 0 26 3 22 19 -22 72 -202 323 -351 593
-353 89 0 212 25 262 55 82 48 134 129 142 222 7 83 -22 135 -105 189 l-63 42
78 19 78 19 -1 67 c0 55 -7 78 -37 140 -48 98 -95 147 -196 207 -136 81 -270
112 -386 91 -183 -34 -329 -174 -372 -360 l-18 -76 -3 95 c-2 52 2 155 7 228
11 137 27 193 71 249 11 14 20 33 20 42 0 28 -49 91 -71 91 -12 0 -30 11 -41
25 -22 28 -51 31 -88 10 -37 -21 -270 -21 -311 1 -47 24 -81 15 -101 -26 -19
-40 -23 -86 -8 -95 21 -13 60 -105 70 -166 6 -35 14 -190 17 -344 5 -236 3
-296 -11 -379 -17 -101 -29 -136 -46 -136 -6 0 -10 92 -10 238 0 382 -27 450
-220 555 -85 47 -174 62 -279 47 -228 -34 -245 -33 -317 16 -28 19 -42 24 -54
17 -30 -19 -45 -66 -45 -143 0 -86 23 -142 75 -182 l31 -24 -55 -37 c-30 -20
-65 -50 -77 -66 l-22 -30 -37 58 c-44 67 -94 110 -208 179 l-84 50 34 7 c115
24 198 169 182 320 -7 75 -27 109 -58 101 -16 -4 -24 1 -31 17 -15 32 -50 33
-98 1 -61 -41 -131 -44 -227 -9 -158 57 -199 62 -320 44z m183 -256 c17 -26
52 -69 76 -95 24 -26 42 -48 39 -48 -13 0 -119 40 -156 59 -56 28 -69 58 -48
100 24 45 50 40 89 -16z m2687 -356 c0 -67 -10 -87 -46 -87 -20 0 -21 3 -13
45 10 51 35 105 49 105 6 0 10 -28 10 -63z m-1490 -13 c0 -37 -6 -40 -33 -20
-18 14 -18 16 -2 40 22 32 35 25 35 -20z m-1095 -263 c47 -27 75 -76 75 -133
0 -43 -5 -55 -33 -83 -57 -57 -160 -68 -192 -21 -8 11 -15 40 -15 64 0 37 5
49 34 76 18 17 44 39 57 48 24 16 24 17 6 48 l-17 32 27 -7 c16 -3 41 -14 58
-24z m1064 -74 c-1 -94 -16 -168 -35 -174 -31 -10 -33 170 -4 235 11 24 24 41
30 37 6 -3 10 -46 9 -98z m1549 -2 c28 -62 2 -170 -44 -181 -12 -3 -27 -3 -32
0 -14 8 -32 88 -32 141 0 38 4 47 23 55 43 17 73 12 85 -15z"/>
<path d="M8505 1620 c-43 -13 -101 -64 -130 -114 -17 -29 -29 -70 -35 -124
-14 -110 3 -182 82 -342 57 -115 63 -132 68 -208 l5 -83 -42 -24 c-87 -52
-125 -204 -76 -300 27 -51 62 -83 136 -124 82 -45 140 -50 209 -18 109 49 151
155 113 284 -14 47 -53 93 -107 128 -14 8 -15 23 -9 95 8 90 15 107 95 245 53
92 64 125 73 215 13 150 -34 243 -163 322 -87 53 -156 68 -219 48z"/>
</g>
</svg>
