<?xml version="1.0" encoding="utf-8"?>
<!-- Generated by IcoMoon.io -->
<!DOCTYPE svg PUBLIC "-//W3C//DTD SVG 1.1//EN" "http://www.w3.org/Graphics/SVG/1.1/DTD/svg11.dtd">
<svg version="1.1" id="calendar" xmlns="http://www.w3.org/2000/svg" xmlns:xlink="http://www.w3.org/1999/xlink" width="59" height="64" viewBox="0 0 59 64">
<path d="M4.571 59.429h10.286v-10.286h-10.286v10.286zM17.143 59.429h11.429v-10.286h-11.429v10.286zM4.571 46.857h10.286v-11.429h-10.286v11.429zM17.143 46.857h11.429v-11.429h-11.429v11.429zM4.571 33.143h10.286v-10.286h-10.286v10.286zM30.857 59.429h11.429v-10.286h-11.429v10.286zM17.143 33.143h11.429v-10.286h-11.429v10.286zM44.571 59.429h10.286v-10.286h-10.286v10.286zM30.857 46.857h11.429v-11.429h-11.429v11.429zM18.286 16v-10.286q0-0.464-0.339-0.804t-0.804-0.339h-2.286q-0.464 0-0.804 0.339t-0.339 0.804v10.286q0 0.464 0.339 0.804t0.804 0.339h2.286q0.464 0 0.804-0.339t0.339-0.804zM44.571 46.857h10.286v-11.429h-10.286v11.429zM30.857 33.143h11.429v-10.286h-11.429v10.286zM44.571 33.143h10.286v-10.286h-10.286v10.286zM45.714 16v-10.286q0-0.464-0.339-0.804t-0.804-0.339h-2.286q-0.464 0-0.804 0.339t-0.339 0.804v10.286q0 0.464 0.339 0.804t0.804 0.339h2.286q0.464 0 0.804-0.339t0.339-0.804zM59.429 13.714v45.714q0 1.857-1.357 3.214t-3.214 1.357h-50.286q-1.857 0-3.214-1.357t-1.357-3.214v-45.714q0-1.857 1.357-3.214t3.214-1.357h4.571v-3.429q0-2.357 1.679-4.036t4.036-1.679h2.286q2.357 0 4.036 1.679t1.679 4.036v3.429h13.714v-3.429q0-2.357 1.679-4.036t4.036-1.679h2.286q2.357 0 4.036 1.679t1.679 4.036v3.429h4.571q1.857 0 3.214 1.357t1.357 3.214z"></path>
</svg>
