<?xml version="1.0" encoding="utf-8"?>
<!-- Generated by IcoMoon.io -->
<!DOCTYPE svg PUBLIC "-//W3C//DTD SVG 1.1//EN" "http://www.w3.org/Graphics/SVG/1.1/DTD/svg11.dtd">
<svg version="1.1" id="group" xmlns="http://www.w3.org/2000/svg" xmlns:xlink="http://www.w3.org/1999/xlink" width="69" height="64" viewBox="0 0 69 64">
<path d="M21.179 32q-5.786 0.179-9.464 4.571h-4.786q-2.929 0-4.929-1.446t-2-4.232q0-12.607 4.429-12.607 0.214 0 1.554 0.75t3.482 1.518 4.25 0.768q2.393 0 4.75-0.821-0.179 1.321-0.179 2.357 0 4.964 2.893 9.143zM59.429 54.75q0 4.286-2.607 6.768t-6.929 2.482h-31.214q-4.321 0-6.929-2.482t-2.607-6.768q0-1.893 0.125-3.696t0.5-3.893 0.946-3.875 1.536-3.482 2.214-2.893 3.054-1.911 3.982-0.714q0.357 0 1.536 0.768t2.607 1.714 3.821 1.714 4.821 0.768 4.821-0.768 3.821-1.714 2.607-1.714 1.536-0.768q2.179 0 3.982 0.714t3.054 1.911 2.214 2.893 1.536 3.482 0.946 3.875 0.5 3.893 0.125 3.696zM22.857 9.143q0 3.786-2.679 6.464t-6.464 2.679-6.464-2.679-2.679-6.464 2.679-6.464 6.464-2.679 6.464 2.679 2.679 6.464zM48 22.857q0 5.679-4.018 9.696t-9.696 4.018-9.696-4.018-4.018-9.696 4.018-9.696 9.696-4.018 9.696 4.018 4.018 9.696zM68.571 30.893q0 2.786-2 4.232t-4.929 1.446h-4.786q-3.679-4.393-9.464-4.571 2.893-4.179 2.893-9.143 0-1.036-0.179-2.357 2.357 0.821 4.75 0.821 2.107 0 4.25-0.768t3.482-1.518 1.554-0.75q4.429 0 4.429 12.607zM64 9.143q0 3.786-2.679 6.464t-6.464 2.679-6.464-2.679-2.679-6.464 2.679-6.464 6.464-2.679 6.464 2.679 2.679 6.464z"></path>
</svg>
