<?xml version="1.0" ?><svg height="60px" version="1.1" viewBox="0 0 60 60" width="60px" xmlns="http://www.w3.org/2000/svg" xmlns:xlink="http://www.w3.org/1999/xlink"><title/><desc/><defs/><g fill="none" fill-rule="evenodd" id="Page-1" stroke="none" stroke-linecap="round" stroke-linejoin="round" stroke-width="1"><g id="007---Present" stroke="#000000" transform="translate(1.000000, 0.000000)"><path d="M36.59,26 L55,26 L55,57 C54.9967707,58.1032291 54.1032291,58.9967707 53,59 L5,59 C3.89677088,58.9967707 3.00322927,58.1032291 3,57 L3,26 L21.4,26" id="Shape" stroke-width="2"/><path d="M36.59,26 L56,26 C57.1032291,25.9967707 57.9967707,25.1032291 58,24 L58,18 C57.9967707,16.8967709 57.1032291,16.0032293 56,16 L2,16 C0.896770878,16.0032293 0.00322927335,16.8967709 0,18 L0,24 C0.00322927335,25.1032291 0.896770878,25.9967707 2,26 L21.4,26" id="Shape" stroke-width="2"/><polyline id="Shape" points="23 16 25 16 25.57 16 26 16 29 16 32 16 32.43 16 33 16 35 16"/><polyline id="Shape" points="24 37.8 24 40.29 24 48 24 56.11 24 59 29 59 34 59 34 54 34 46.22 34 38 34 37.8" stroke-width="2"/><path d="M29,16 C29,16 23,-0.02 13,1.05 C3.66,2.05 5.66,15.13 18.17,16" id="Shape" stroke-width="2"/><path d="M26,16 C24.8929393,13.9438001 23.6407159,11.9691293 22.25285,10.091 C20.40272,7.60694 17.89926,4.06634 14.40735,4.12607 C13.7732238,4.12639566 13.1476865,4.27271845 12.57921,4.5537 C11.5618897,5.08215391 10.8900955,6.09901744 10.80311,7.2421 C10.8401785,8.53167124 11.3751651,9.75679154 12.29586,10.6605 C14.79485,13.44777 18.50592,14.9249 22,16" id="Shape"/><path d="M39.83,16 C52.34,15.13 54.34,2.05 45,1.05 C35,-0.02 29,16 29,16" id="Shape" stroke-width="2"/><path d="M36,16 C39.49408,14.9249 43.20515,13.44777 45.70414,10.66051 C46.6248349,9.75680154 47.1598215,8.53168124 47.19689,7.24211 C47.1099045,6.09902744 46.4381103,5.08216391 45.42079,4.55371 C44.8523135,4.27272845 44.2267762,4.12640566 43.59265,4.12608 C40.10074,4.06635 37.59728,7.60695 35.74715,10.09101 C34.3592845,11.9691361 33.1070611,13.9438035 32,16" id="Shape"/><path d="M29,28.28 C27.7934295,31.6744765 26.1098816,34.8799516 24,37.8 C18.44,45.17 13,44 13,44 L14,42 L16,38 L10.82,36.52 L9,36 C10.1754072,35.7860982 11.3204665,35.430156 12.41,34.94 C16.55,33.12 19.4,29.62 21.33,26.12 C21.3570158,26.0822649 21.3804508,26.0420907 21.4,26 C23.0892736,22.8636404 24.3025538,19.4934175 25,16" id="Shape" stroke-width="2"/><path d="M25.57,16 C26.2385343,19.3836558 27.1135028,22.7232304 28.19,26 C28.45,26.79 28.72,27.55 29,28.28 C29.6258445,29.9612898 30.3504393,31.60415 31.17,33.2 C31.977386,34.8129262 32.9243292,36.3521272 34,37.8 C34.0275118,37.8386339 34.057579,37.8753827 34.09,37.91 C35.256597,39.4895687 36.6636908,40.8764166 38.26,42.02 C39.9100891,43.2464514 41.8866533,43.9563442 43.94,44.06 C44.2944595,44.077166 44.6497417,44.0570557 45,44 L44.67,43.33 L42.11,38.21 L42,38 L42.45,37.87 L49,36 C47.7793501,35.7829179 46.5925219,35.4063606 45.47,34.88 C43.6318913,34.0524931 41.9687583,32.8815117 40.57,31.43 C39.3029729,30.1476261 38.1949955,28.717328 37.27,27.17 C37.03,26.78 36.8,26.39 36.59,26 C35.9984279,24.9101862 35.4676164,23.7884714 35,22.64 C34.1195044,20.4967895 33.4496805,18.2729741 33,16" id="Shape" stroke-width="2"/><path d="M3,26 L13,16" id="Shape"/><polyline id="Shape" points="20 16 19.96 16.04 10 26"/><path d="M38,26 L48,16" id="Shape"/><path d="M45,26 L55,16" id="Shape"/><path d="M13,26 L3,36" id="Shape"/><path d="M10.82,36.52 L3,44.25" id="Shape"/><path d="M31.57,16 L31.56,16" id="Shape"/><path d="M14,42 L3,53" id="Shape"/><path d="M24,40.29 L5.08,59" id="Shape"/><path d="M38.45,26 L37.27,27.17" id="Shape"/><path d="M24,48 L13,59" id="Shape"/><path d="M34.09,37.91 L34,38" id="Shape"/><path d="M46,26 L40.57,31.43" id="Shape"/><path d="M42.45,37.87 L42.11,38.21" id="Shape"/><path d="M38.26,42.02 L34,46.22" id="Shape"/><path d="M24,56.11 L21.08,59" id="Shape"/><path d="M54.45,26 L45.47,34.88" id="Shape"/><path d="M43.94,44.06 L34,54" id="Shape"/><path d="M55,33 L44.67,43.33" id="Shape"/><path d="M55,41.28 L37.08,59" id="Shape"/><path d="M55,49.19 L45.08,59" id="Shape"/></g></g></svg>