<?xml version="1.0" encoding="utf-8"?>
<!-- Generated by IcoMoon.io -->
<!DOCTYPE svg PUBLIC "-//W3C//DTD SVG 1.1//EN" "http://www.w3.org/Graphics/SVG/1.1/DTD/svg11.dtd">
<svg version="1.1" id="clip" xmlns="http://www.w3.org/2000/svg" xmlns:xlink="http://www.w3.org/1999/xlink" width="50" height="64" viewBox="0 0 50 64">
<path d="M50.143 49.464q0 4.179-2.821 7t-7 2.821q-4.821 0-8.393-3.571l-27.75-27.714q-4.036-4.107-4.036-9.679 0-5.679 3.929-9.643t9.607-3.964q5.643 0 9.75 4.036l21.607 21.643q0.357 0.357 0.357 0.786 0 0.571-1.089 1.661t-1.661 1.089q-0.464 0-0.821-0.357l-21.643-21.679q-2.821-2.75-6.464-2.75-3.786 0-6.393 2.679t-2.607 6.464q0 3.75 2.714 6.464l27.714 27.75q2.25 2.25 5.179 2.25 2.286 0 3.786-1.5t1.5-3.786q0-2.929-2.25-5.179l-20.75-20.75q-0.929-0.857-2.143-0.857-1.036 0-1.714 0.679t-0.679 1.714q0 1.143 0.893 2.107l14.643 14.643q0.357 0.357 0.357 0.786 0 0.571-1.107 1.679t-1.679 1.107q-0.429 0-0.786-0.357l-14.643-14.643q-2.25-2.179-2.25-5.321 0-2.929 2.036-4.964t4.964-2.036q3.143 0 5.321 2.25l20.75 20.75q3.571 3.5 3.571 8.393z"></path>
</svg>
